<svg xmlns="http://www.w3.org/2000/svg" width="1024" height="1024" viewBox="0 0 1024 1024">
<g>
<path d="M 784.00 662.76 C777.46,664.13 759.61,664.38 644.25,664.70 L 512.00 665.08 L 512.00 531.23 L 514.33 529.70 C518.13,527.21 561.48,481.06 561.76,479.20 C561.93,478.13 552.81,468.09 537.05,452.00 L 512.08 426.50 L 512.04 355.19 L 512.00 283.89 L 646.75 284.32 C741.82,284.62 783.41,285.08 788.00,285.89 C830.88,293.45 853.76,315.26 863.11,357.50 C866.16,371.29 867.13,410.53 866.45,493.50 C865.84,569.13 865.27,579.83 860.98,596.50 C857.06,611.74 847.74,628.15 837.34,638.15 C824.84,650.17 808.83,657.56 784.00,662.76 ZM 557.17 515.13 C557.90,515.59 572.28,515.98 589.13,515.98 C615.57,516.00 619.93,515.79 621.04,514.45 C622.55,512.63 623.27,497.29 621.89,496.43 C619.38,494.88 623.07,494.00 632.06,494.00 L 642.00 494.00 L 642.00 491.14 C642.00,489.28 641.15,487.64 639.56,486.45 C638.22,485.44 637.34,484.25 637.62,483.81 C637.89,483.36 637.67,483.00 637.13,483.00 C636.25,483.00 635.27,480.98 634.54,477.63 C634.40,477.01 633.62,474.92 632.79,473.00 C631.96,471.08 628.21,461.49 624.46,451.71 L 617.64 433.91 L 606.50 434.50 L 598.89 455.00 C594.70,466.27 589.86,478.90 588.14,483.06 C588.02,483.35 587.90,483.63 587.78,483.91 C585.63,489.08 584.58,491.61 585.42,492.83 C586.22,494.01 588.74,494.00 593.65,494.00 C593.93,494.00 594.21,494.00 594.50,494.00 C603.94,494.00 604.00,493.98 604.00,491.53 C604.00,489.79 603.11,488.59 601.00,487.50 C597.66,485.77 597.53,485.28 599.09,480.12 L 600.17 476.50 L 619.57 475.90 L 621.29 480.70 C623.44,486.69 623.43,487.00 621.12,487.00 C618.34,487.00 616.89,489.34 617.17,493.39 C617.47,497.90 614.74,501.82 609.47,504.44 C606.38,505.97 603.35,506.38 594.87,506.44 C588.99,506.47 583.92,506.25 583.61,505.94 C582.95,505.28 582.70,429.97 583.36,429.31 C583.60,429.06 585.99,428.55 588.65,428.17 C593.39,427.50 593.51,427.40 593.81,423.74 L 594.12 420.00 L 555.00 420.00 L 555.00 422.80 C555.00,426.35 556.65,428.00 560.20,428.00 C561.74,428.00 563.90,428.90 565.00,430.00 C566.93,431.93 567.00,433.32 566.98,467.75 C566.98,488.50 566.57,504.13 566.02,505.00 C565.50,505.83 563.15,506.97 560.79,507.54 C557.12,508.43 556.45,509.00 556.17,511.43 C555.98,513.04 556.42,514.65 557.17,515.13 ZM 759.25 533.34 C761.08,534.08 774.24,534.10 777.88,533.38 C780.60,532.83 781.00,532.34 781.00,529.50 C781.00,526.36 780.84,526.24 776.00,525.59 C772.36,525.11 771.00,524.50 771.00,523.33 C771.00,521.27 774.87,515.00 776.14,515.00 C776.68,515.00 776.87,514.60 776.56,514.10 C776.26,513.61 776.71,512.94 777.57,512.61 C778.43,512.28 778.84,511.56 778.50,511.00 C778.16,510.44 778.58,509.72 779.44,509.39 C780.30,509.06 781.00,508.35 781.00,507.82 C781.00,505.80 789.84,494.00 791.35,494.00 C792.28,494.00 811.29,521.44 811.39,522.93 C811.47,524.06 810.04,524.76 806.25,525.43 C801.17,526.34 801.00,526.47 801.00,529.66 C801.00,534.02 801.59,534.13 823.50,533.78 L 841.50 533.50 L 841.80 529.84 C842.09,526.42 841.89,526.14 838.80,525.47 C834.27,524.50 830.01,522.20 829.97,520.72 C829.96,520.05 828.68,518.26 827.14,516.76 C825.60,515.25 823.70,512.79 822.92,511.31 C822.14,509.82 820.50,507.51 819.27,506.18 C818.04,504.84 817.25,503.40 817.51,502.98 C817.77,502.56 817.32,501.95 816.49,501.64 C815.67,501.32 815.00,500.42 815.00,499.64 C815.00,498.85 814.30,497.94 813.44,497.61 C812.58,497.28 812.16,496.56 812.50,496.00 C812.84,495.44 812.43,494.72 811.57,494.39 C810.71,494.06 810.26,493.39 810.56,492.90 C810.87,492.40 810.66,492.00 810.11,492.00 C809.55,492.00 807.75,490.04 806.11,487.65 C802.75,482.77 801.16,478.00 802.89,478.00 C803.50,478.00 804.00,477.52 804.00,476.92 C804.00,475.41 814.18,461.00 815.24,461.00 C815.72,461.00 815.84,460.55 815.50,459.99 C815.15,459.44 815.58,458.72 816.44,458.39 C817.30,458.06 818.00,457.16 818.00,456.39 C818.00,455.63 818.45,455.00 819.00,455.00 C819.55,455.00 820.00,454.43 820.00,453.72 C820.00,450.36 828.80,443.74 834.50,442.81 C835.94,442.58 836.59,441.57 836.81,439.24 L 837.13 436.00 L 804.00 436.00 L 804.00 439.50 C804.00,442.91 804.10,443.00 807.94,443.00 C810.11,443.00 812.14,443.41 812.45,443.92 C813.32,445.33 795.71,470.82 794.26,470.27 C793.57,470.00 793.25,469.41 793.53,468.95 C793.82,468.48 793.24,467.66 792.24,467.13 C791.24,466.59 789.76,464.88 788.96,463.33 C788.16,461.77 786.53,459.43 785.35,458.11 C784.16,456.80 782.59,454.55 781.85,453.11 C781.11,451.68 779.76,449.68 778.85,448.67 C776.46,446.01 777.20,443.58 780.59,443.00 C783.01,442.58 783.55,441.95 783.81,439.25 L 784.13 436.00 L 746.00 436.00 L 746.00 439.50 C746.00,442.51 746.33,443.00 748.35,443.00 C755.61,443.00 757.36,444.91 779.36,476.74 L 785.05 484.97 L 776.19 497.74 C760.57,520.23 758.36,523.38 758.05,526.71 C758.00,527.25 758.00,527.80 758.00,528.45 L 758.00 528.53 C758.00,531.04 758.52,533.04 759.25,533.34 ZM 686.67 544.25 C686.92,544.66 701.91,545.00 719.99,545.00 L 752.86 545.00 L 753.39 539.75 C753.68,536.86 754.17,530.11 754.48,524.75 L 755.04 515.00 L 752.09 515.00 C749.39,515.00 749.01,515.45 747.60,520.31 C744.03,532.58 739.01,536.06 723.84,536.79 C718.43,537.05 714.00,536.87 713.99,536.38 C713.99,535.90 713.91,530.33 713.81,524.00 C713.71,517.67 713.71,509.85 713.81,506.61 L 714.00 500.72 L 720.15 501.36 C727.35,502.11 728.73,503.02 729.58,507.60 C730.14,510.53 730.62,511.00 733.11,511.00 L 736.00 511.00 L 736.00 482.87 L 733.25 483.18 C731.10,483.43 730.43,484.09 730.19,486.23 C729.70,490.48 725.67,493.00 719.37,493.00 L 714.00 493.00 L 714.00 464.00 L 722.76 464.00 C737.50,464.00 741.28,466.05 745.03,476.09 C747.03,481.42 747.53,482.00 750.11,482.00 L 752.98 482.00 L 752.43 471.25 C752.02,463.44 752.38,459.59 750.63,457.68 C748.92,455.83 745.20,455.82 736.81,455.81 C734.88,455.80 732.69,455.80 730.23,455.77 C701.67,455.45 686.45,455.67 686.75,456.39 C686.89,456.73 687.00,458.58 687.00,460.50 C687.00,463.72 687.24,464.00 690.00,464.00 C691.67,464.00 693.89,464.89 695.00,466.00 C696.92,467.92 697.00,469.33 697.00,500.43 L 697.00 532.86 L 694.25 534.79 C692.74,535.84 690.32,536.99 688.88,537.34 C686.83,537.83 686.25,538.59 686.24,540.74 C686.23,542.26 686.43,543.84 686.67,544.25 ZM 648.75 515.32 C649.71,515.58 659.05,515.72 669.50,515.64 L 688.50 515.50 L 688.80 511.89 C689.10,508.31 689.08,508.28 684.49,507.65 C681.95,507.31 679.29,506.44 678.58,505.72 C677.56,504.70 677.23,496.24 677.07,467.29 L 676.87 430.16 L 685.19 429.80 C696.15,429.33 698.11,430.33 701.84,438.25 C703.46,441.69 705.09,445.51 705.46,446.75 C705.97,448.45 706.89,449.00 709.20,449.00 L 712.26 449.00 L 711.65 444.25 C711.31,441.64 710.74,435.11 710.37,429.75 L 709.70 420.00 L 628.30 420.00 L 627.65 429.15 C627.29,434.19 627.00,440.71 627.00,443.65 C627.00,448.88 627.06,449.00 629.89,449.00 C632.35,449.00 632.87,448.52 633.40,445.75 C634.41,440.45 638.66,432.25 641.17,430.78 C642.80,429.83 645.99,429.52 651.75,429.78 L 660.00 430.15 L 660.00 466.92 C660.00,469.08 660.00,471.13 660.00,473.06 C660.02,498.00 660.02,504.29 657.10,506.27 C655.89,507.09 654.18,507.17 651.75,507.52 C647.18,508.20 647.00,508.35 647.00,511.54 C647.00,513.85 647.53,514.99 648.75,515.32 ZM 616.00 467.65 C616.00,467.84 613.30,468.00 610.00,468.00 C603.44,468.00 602.41,466.71 605.46,462.35 C606.27,461.20 606.65,459.98 606.30,459.63 C605.95,459.28 606.24,459.00 606.94,459.00 C607.65,459.00 607.96,458.35 607.65,457.53 C607.34,456.72 607.53,455.79 608.06,455.46 C608.59,455.13 608.74,454.38 608.38,453.80 C608.01,453.20 608.30,452.93 609.06,453.19 C610.08,453.53 616.00,465.86 616.00,467.65 Z" fill="rgb(15,107,199)"/>
<path d="M 784.14 689.40 C773.09,690.83 744.82,690.98 511.66,690.84 C368.57,690.75 249.93,690.52 248.00,690.33 C217.58,687.31 196.91,678.92 178.99,662.33 C171.34,655.25 165.50,647.13 159.68,635.50 C150.39,616.92 146.67,599.07 144.95,564.86 C143.49,535.65 144.25,372.41 145.89,363.00 C154.16,315.54 177.75,287.37 218.22,276.61 C220.46,276.02 222.25,275.49 224.07,275.03 C237.87,271.49 252.58,271.49 470.35,271.50 C483.18,271.50 496.72,271.50 511.00,271.50 C519.02,271.50 526.81,271.50 534.38,271.50 C771.10,271.50 786.09,271.50 800.24,274.93 C801.65,275.27 803.05,275.65 804.66,276.06 C814.89,278.69 834.84,288.61 842.74,294.99 C860.95,309.70 872.77,332.40 878.18,363.00 C879.22,368.90 879.50,392.53 879.50,474.00 C879.50,586.81 879.43,588.37 873.61,611.07 C861.67,657.59 832.50,683.13 784.14,689.40 ZM 784.00 662.76 C808.83,657.56 824.84,650.17 837.34,638.15 C847.74,628.15 857.06,611.74 860.98,596.50 C865.27,579.83 865.84,569.13 866.45,493.50 C867.13,410.53 866.16,371.29 863.11,357.50 C853.76,315.26 830.88,293.45 788.00,285.89 C783.41,285.08 741.82,284.62 646.75,284.32 L 512.00 283.89 L 512.04 355.19 L 512.08 426.50 L 537.05 452.00 C552.81,468.09 561.93,478.13 561.76,479.20 C561.48,481.06 518.13,527.21 514.33,529.70 L 512.00 531.23 L 512.00 531.16 L 509.08 530.52 C503.23,529.23 499.02,522.65 499.01,514.75 L 499.00 512.00 L 473.00 512.00 L 473.00 535.54 C473.00,562.10 472.53,564.21 465.34,569.69 L 461.66 572.50 L 329.58 572.80 C237.58,573.00 196.38,572.77 193.80,572.02 C189.29,570.72 184.52,566.85 182.21,562.63 C180.65,559.78 180.47,553.57 180.22,492.73 C180.03,449.10 180.29,424.64 180.96,422.13 C182.53,416.32 186.01,411.87 191.00,409.30 L 195.50 406.99 L 295.91 407.24 L 396.32 407.50 L 384.89 421.50 C378.61,429.20 369.07,441.03 363.69,447.79 C358.32,454.55 351.08,463.17 347.62,466.95 C340.37,474.84 339.08,477.25 335.55,489.41 C330.54,506.70 331.28,514.26 338.32,517.61 C341.49,519.13 342.11,519.13 346.81,517.56 C356.88,514.22 367.93,506.59 378.40,495.75 C388.63,485.16 389.91,483.66 427.01,438.50 C439.21,423.65 450.30,410.49 451.65,409.25 C455.48,405.74 461.94,406.13 466.50,410.14 C472.05,415.01 472.46,416.36 473.00,431.50 L 473.50 445.50 L 486.12 445.78 L 498.73 446.06 L 499.40 441.07 C500.19,435.11 503.58,430.62 508.53,428.99 L 512.00 427.84 L 512.00 283.86 L 381.25 284.29 C243.67,284.73 244.35,284.71 224.50,289.47 C207.04,293.65 194.00,300.90 183.26,312.39 C168.05,328.64 161.02,348.86 158.89,382.44 C157.42,405.69 158.29,562.99 159.97,577.00 C164.73,616.71 181.61,641.73 212.41,654.74 C221.30,658.49 236.62,662.47 247.50,663.86 C251.35,664.35 312.44,664.80 383.25,664.87 L 512.00 665.00 L 512.00 665.08 L 644.25 664.70 C759.61,664.38 777.46,664.13 784.00,662.76 ZM 511.68 515.62 C512.24,517.06 515.93,513.71 530.66,498.45 C540.72,488.03 548.85,479.23 548.72,478.89 C548.07,477.11 512.92,441.74 512.36,442.30 C512.00,442.67 511.48,446.35 511.22,450.48 L 510.74 458.00 L 484.70 458.00 C461.87,458.00 458.43,458.20 456.83,459.65 C455.19,461.13 455.00,463.11 455.00,478.33 C455.00,492.76 455.25,495.62 456.65,497.17 C458.18,498.85 460.40,499.00 484.65,499.00 L 511.00 499.00 L 511.00 506.42 C511.00,510.50 511.31,514.64 511.68,515.62 ZM 379.55 485.75 C376.95,488.64 374.52,491.00 374.16,490.99 C373.80,490.99 368.89,486.67 363.25,481.41 L 352.99 471.83 L 356.08 468.16 C362.46,460.58 409.75,403.10 417.46,393.54 C429.43,378.71 432.99,375.28 437.24,374.48 C447.31,372.59 456.65,385.28 451.84,394.32 C449.02,399.61 390.65,473.44 379.55,485.75 ZM 294.00 521.29 C298.57,522.96 304.96,520.87 313.75,514.83 C323.60,508.07 331.09,499.57 329.48,496.97 C328.49,495.36 327.52,495.77 318.84,501.50 C305.45,510.33 300.51,512.67 298.60,511.08 C297.72,510.35 297.00,508.96 297.00,508.00 C297.00,507.03 299.48,499.18 302.50,490.54 C309.14,471.59 309.60,466.45 305.08,461.92 C300.30,457.15 294.32,458.31 282.38,466.32 C273.70,472.14 271.04,474.88 256.03,493.50 C245.84,506.14 243.98,508.97 244.22,511.50 C244.43,513.78 245.06,514.58 246.83,514.83 C249.86,515.26 251.78,513.46 260.50,501.97 C270.33,489.03 281.20,476.28 285.20,473.01 C289.02,469.87 295.37,467.54 297.68,468.43 C300.21,469.40 298.80,476.70 293.07,492.25 C287.14,508.31 286.41,515.20 290.25,518.70 C291.49,519.82 293.17,520.99 294.00,521.29 ZM 204.00 551.36 C204.82,551.68 207.89,551.81 210.80,551.64 C218.72,551.17 219.40,550.07 219.85,536.95 C220.29,523.86 219.41,515.56 217.36,513.50 C215.20,511.34 204.26,511.45 201.83,513.65 C200.20,515.13 200.00,517.08 200.00,531.46 C200.00,547.85 200.42,549.95 204.00,551.36 ZM 205.12 466.03 C209.76,467.17 215.10,466.25 217.50,463.90 C219.31,462.13 219.50,460.63 219.50,447.72 C219.50,430.17 219.10,428.52 214.43,426.98 C209.69,425.41 202.33,426.52 201.00,429.00 C199.79,431.27 199.68,461.95 200.89,463.85 C201.36,464.59 203.26,465.57 205.12,466.03 ZM 353.60 505.44 C348.70,508.50 344.34,511.00 343.90,511.00 C342.73,511.00 340.00,506.79 340.00,504.99 C340.00,499.33 346.74,479.78 348.54,480.20 C349.23,480.37 353.49,484.04 358.01,488.36 C358.56,488.90 359.08,489.39 359.58,489.86 C363.08,493.18 364.96,494.97 364.85,496.62 C364.71,498.76 361.22,500.67 353.60,505.44 ZM 201.04 499.07 C201.91,500.71 203.18,501.00 209.41,501.00 C218.85,501.00 219.48,500.30 219.43,489.75 C219.38,479.98 218.47,479.00 209.38,479.00 C200.94,479.00 200.00,480.06 200.00,489.64 C200.00,493.76 200.47,498.00 201.04,499.07 ZM 434.00 400.43 C437.02,402.92 440.01,404.97 440.63,404.98 C441.26,404.99 442.46,403.94 443.31,402.65 C444.81,400.37 444.67,400.16 437.67,394.30 C428.00,386.21 426.70,385.57 424.56,387.94 C422.95,389.71 423.01,389.97 425.68,392.86 C427.23,394.54 430.98,397.95 434.00,400.43 Z" fill="rgb(29,30,32)"/>
<path d="M 204.00 551.36 C200.42,549.95 200.00,547.85 200.00,531.46 C200.00,517.08 200.20,515.13 201.83,513.65 C204.26,511.45 215.20,511.34 217.36,513.50 C219.41,515.56 220.29,523.86 219.85,536.95 C219.40,550.07 218.72,551.17 210.80,551.64 C207.89,551.81 204.82,551.68 204.00,551.36 ZM 205.12 466.03 C203.26,465.57 201.36,464.59 200.89,463.85 C199.68,461.95 199.79,431.27 201.00,429.00 C202.33,426.52 209.69,425.41 214.43,426.98 C219.10,428.52 219.50,430.17 219.50,447.72 C219.50,460.63 219.31,462.13 217.50,463.90 C215.10,466.25 209.76,467.17 205.12,466.03 ZM 201.04 499.07 C200.47,498.00 200.00,493.76 200.00,489.64 C200.00,480.06 200.94,479.00 209.38,479.00 C218.47,479.00 219.38,479.98 219.43,489.75 C219.48,500.30 218.85,501.00 209.41,501.00 C203.18,501.00 201.91,500.71 201.04,499.07 ZM 434.00 400.43 C430.98,397.95 427.23,394.54 425.68,392.86 C423.01,389.97 422.95,389.71 424.56,387.94 C426.70,385.57 428.00,386.21 437.67,394.30 C444.67,400.16 444.81,400.37 443.31,402.65 C442.46,403.94 441.26,404.99 440.63,404.98 C440.01,404.97 437.02,402.92 434.00,400.43 ZM 325.50 504.80 C326.48,503.35 326.64,502.19 326.10,501.18 C325.30,499.69 325.33,499.06 326.21,498.76 C326.89,498.54 326.99,498.12 326.45,497.80 C326.01,497.54 322.47,499.34 318.09,501.99 C318.34,501.83 318.59,501.67 318.84,501.50 C327.52,495.77 328.49,495.36 329.48,496.97 C330.32,498.33 328.67,501.30 325.50,504.80 ZM 313.75 514.83 C309.29,517.90 305.44,519.95 302.14,521.00 C305.79,519.81 310.13,517.37 315.40,513.59 C316.52,512.78 317.55,512.02 318.48,511.31 C316.99,512.51 315.40,513.70 313.75,514.83 ZM 298.85 511.26 C300.06,511.96 302.30,511.40 306.51,509.12 C301.90,511.75 300.17,512.10 298.85,511.26 ZM 297.79 504.85 C298.54,501.98 300.03,497.58 302.50,490.54 C300.51,496.23 298.75,501.58 297.79,504.85 ZM 298.55 511.04 C298.53,511.03 298.52,511.01 298.50,511.00 C297.89,510.50 297.47,510.02 297.29,509.26 C297.58,509.93 298.03,510.60 298.55,511.04 Z" fill="rgb(113,114,116)"/>
<path d="M 0.00 512.00 L 0.00 0.00 L 512.00 0.00 L 1024.00 0.00 L 1024.00 512.00 L 1024.00 1024.00 L 512.00 1024.00 L 0.00 1024.00 L 0.00 512.00 ZM 784.14 689.40 C832.50,683.13 861.67,657.59 873.61,611.07 C879.43,588.37 879.50,586.81 879.50,474.00 C879.50,392.53 879.22,368.90 878.18,363.00 C872.77,332.40 860.95,309.70 842.74,294.99 C834.84,288.61 814.89,278.69 804.66,276.06 C786.36,271.36 795.14,271.50 511.00,271.50 C222.47,271.50 238.51,271.22 218.22,276.61 C177.75,287.37 154.16,315.54 145.89,363.00 C144.25,372.41 143.49,535.65 144.95,564.86 C146.67,599.07 150.39,616.92 159.68,635.50 C165.50,647.13 171.34,655.25 178.99,662.33 C196.91,678.92 217.58,687.31 248.00,690.33 C249.93,690.52 368.57,690.75 511.66,690.84 C744.82,690.98 773.09,690.83 784.14,689.40 ZM 247.50 663.86 C236.62,662.47 221.30,658.49 212.41,654.74 C181.61,641.73 164.73,616.71 159.97,577.00 C158.29,562.99 157.42,405.69 158.89,382.44 C161.02,348.86 168.05,328.64 183.26,312.39 C194.00,300.90 207.04,293.65 224.50,289.47 C244.35,284.71 243.67,284.73 381.25,284.29 L 512.00 283.86 L 512.00 355.85 L 512.00 427.84 L 508.53 428.99 C503.58,430.62 500.19,435.11 499.40,441.07 L 498.73 446.06 L 486.12 445.78 L 473.50 445.50 L 473.00 431.50 C472.46,416.36 472.05,415.01 466.50,410.14 C461.94,406.13 455.48,405.74 451.65,409.25 C450.30,410.49 439.21,423.65 427.01,438.50 C389.91,483.66 388.63,485.16 378.40,495.75 C367.93,506.59 356.88,514.22 346.81,517.56 C342.11,519.13 341.49,519.13 338.32,517.61 C331.28,514.26 330.54,506.70 335.55,489.41 C339.08,477.25 340.37,474.84 347.62,466.95 C351.08,463.17 358.32,454.55 363.69,447.79 C369.07,441.03 378.61,429.20 384.89,421.50 L 396.32 407.50 L 295.91 407.24 L 195.50 406.99 L 191.00 409.30 C186.01,411.87 182.53,416.32 180.96,422.13 C180.29,424.64 180.03,449.10 180.22,492.73 C180.47,553.57 180.65,559.78 182.21,562.63 C184.52,566.85 189.29,570.72 193.80,572.02 C196.38,572.77 237.58,573.00 329.58,572.80 L 461.66 572.50 L 465.34 569.69 C472.53,564.21 473.00,562.10 473.00,535.54 L 473.00 512.00 L 486.00 512.00 L 499.00 512.00 L 499.01 514.75 C499.02,522.65 503.23,529.23 509.08,530.52 L 512.00 531.16 L 512.00 598.08 L 512.00 665.00 L 383.25 664.87 C312.44,664.80 251.35,664.35 247.50,663.86 ZM 353.60 505.44 C367.92,496.48 367.64,497.59 358.01,488.36 C353.49,484.04 349.23,480.37 348.54,480.20 C346.74,479.78 340.00,499.33 340.00,504.99 C340.00,506.79 342.73,511.00 343.90,511.00 C344.34,511.00 348.70,508.50 353.60,505.44 ZM 379.55 485.75 C390.65,473.44 449.02,399.61 451.84,394.32 C456.65,385.28 447.31,372.59 437.24,374.48 C432.99,375.28 429.43,378.71 417.46,393.54 C409.75,403.10 362.46,460.58 356.08,468.16 L 352.99 471.83 L 363.25 481.41 C368.89,486.67 373.80,490.99 374.16,490.99 C374.52,491.00 376.95,488.64 379.55,485.75 ZM 686.67 544.25 C686.43,543.84 686.23,542.26 686.24,540.74 C686.25,538.59 686.83,537.83 688.88,537.34 C690.32,536.99 692.74,535.84 694.25,534.79 L 697.00 532.86 L 697.00 500.43 C697.00,469.33 696.92,467.92 695.00,466.00 C693.89,464.89 691.67,464.00 690.00,464.00 C687.24,464.00 687.00,463.72 687.00,460.50 C687.00,458.58 686.89,456.73 686.75,456.39 C686.45,455.67 701.67,455.45 730.23,455.77 C754.35,456.04 751.54,454.08 752.43,471.25 L 752.98 482.00 L 750.11 482.00 C747.53,482.00 747.03,481.42 745.03,476.09 C741.28,466.05 737.50,464.00 722.76,464.00 L 714.00 464.00 L 714.00 478.50 L 714.00 493.00 L 719.37 493.00 C725.67,493.00 729.70,490.48 730.19,486.23 C730.43,484.09 731.10,483.43 733.25,483.18 L 736.00 482.87 L 736.00 496.93 L 736.00 511.00 L 733.11 511.00 C730.62,511.00 730.14,510.53 729.58,507.60 C728.73,503.02 727.35,502.11 720.15,501.36 L 714.00 500.72 L 713.81 506.61 C713.71,509.85 713.71,517.67 713.81,524.00 C713.91,530.33 713.99,535.90 713.99,536.38 C714.00,536.87 718.43,537.05 723.84,536.79 C739.01,536.06 744.03,532.58 747.60,520.31 C749.01,515.45 749.39,515.00 752.09,515.00 L 755.04 515.00 L 754.48 524.75 C754.17,530.11 753.68,536.86 753.39,539.75 L 752.86 545.00 L 719.99 545.00 C701.91,545.00 686.92,544.66 686.67,544.25 ZM 759.25 533.34 C758.52,533.04 758.00,531.04 758.00,528.53 C758.00,523.89 757.89,524.08 776.19,497.74 L 785.05 484.97 L 779.36 476.74 C757.36,444.91 755.61,443.00 748.35,443.00 C746.33,443.00 746.00,442.51 746.00,439.50 L 746.00 436.00 L 765.06 436.00 L 784.13 436.00 L 783.81 439.25 C783.55,441.95 783.01,442.58 780.59,443.00 C777.20,443.58 776.46,446.01 778.85,448.67 C779.76,449.68 781.11,451.68 781.85,453.11 C782.59,454.55 784.16,456.80 785.35,458.11 C786.53,459.43 788.16,461.77 788.96,463.33 C789.76,464.88 791.24,466.59 792.24,467.13 C793.24,467.66 793.82,468.48 793.53,468.95 C793.25,469.41 793.57,470.00 794.26,470.27 C795.71,470.82 813.32,445.33 812.45,443.92 C812.14,443.41 810.11,443.00 807.94,443.00 C804.10,443.00 804.00,442.91 804.00,439.50 L 804.00 436.00 L 820.56 436.00 L 837.13 436.00 L 836.81 439.24 C836.59,441.57 835.94,442.58 834.50,442.81 C828.80,443.74 820.00,450.36 820.00,453.72 C820.00,454.43 819.55,455.00 819.00,455.00 C818.45,455.00 818.00,455.63 818.00,456.39 C818.00,457.16 817.30,458.06 816.44,458.39 C815.58,458.72 815.15,459.44 815.50,459.99 C815.84,460.55 815.72,461.00 815.24,461.00 C814.18,461.00 804.00,475.41 804.00,476.92 C804.00,477.52 803.50,478.00 802.89,478.00 C801.16,478.00 802.75,482.77 806.11,487.65 C807.75,490.04 809.55,492.00 810.11,492.00 C810.66,492.00 810.87,492.40 810.56,492.90 C810.26,493.39 810.71,494.06 811.57,494.39 C812.43,494.72 812.84,495.44 812.50,496.00 C812.16,496.56 812.58,497.28 813.44,497.61 C814.30,497.94 815.00,498.85 815.00,499.64 C815.00,500.42 815.67,501.32 816.49,501.64 C817.32,501.95 817.77,502.56 817.51,502.98 C817.25,503.40 818.04,504.84 819.27,506.18 C820.50,507.51 822.14,509.82 822.92,511.31 C823.70,512.79 825.60,515.25 827.14,516.76 C828.68,518.26 829.96,520.05 829.97,520.72 C830.01,522.20 834.27,524.50 838.80,525.47 C841.89,526.14 842.09,526.42 841.80,529.84 L 841.50 533.50 L 823.50 533.78 C801.59,534.13 801.00,534.02 801.00,529.66 C801.00,526.47 801.17,526.34 806.25,525.43 C810.04,524.76 811.47,524.06 811.39,522.93 C811.29,521.44 792.28,494.00 791.35,494.00 C789.84,494.00 781.00,505.80 781.00,507.82 C781.00,508.35 780.30,509.06 779.44,509.39 C778.58,509.72 778.16,510.44 778.50,511.00 C778.84,511.56 778.43,512.28 777.57,512.61 C776.71,512.94 776.26,513.61 776.56,514.10 C776.87,514.60 776.68,515.00 776.14,515.00 C774.87,515.00 771.00,521.27 771.00,523.33 C771.00,524.50 772.36,525.11 776.00,525.59 C780.84,526.24 781.00,526.36 781.00,529.50 C781.00,532.34 780.60,532.83 777.88,533.38 C774.24,534.10 761.08,534.08 759.25,533.34 ZM 294.00 521.29 C293.17,520.99 291.49,519.82 290.25,518.70 C286.41,515.20 287.14,508.31 293.07,492.25 C298.80,476.70 300.21,469.40 297.68,468.43 C295.37,467.54 289.02,469.87 285.20,473.01 C281.20,476.28 270.33,489.03 260.50,501.97 C251.78,513.46 249.86,515.26 246.83,514.83 C245.06,514.58 244.43,513.78 244.22,511.50 C243.98,508.97 245.84,506.14 256.03,493.50 C271.04,474.88 273.70,472.14 282.38,466.32 C294.32,458.31 300.30,457.15 305.08,461.92 C309.60,466.45 309.14,471.59 302.50,490.54 C296.55,507.54 296.24,509.12 298.50,511.00 C300.50,512.66 302.94,511.60 315.50,503.60 C321.00,500.10 325.93,497.49 326.45,497.80 C326.99,498.12 326.89,498.54 326.21,498.76 C325.33,499.06 325.30,499.69 326.10,501.18 C327.43,503.67 324.54,507.02 315.40,513.59 C305.50,520.69 298.87,523.08 294.00,521.29 ZM 511.68 515.62 C511.31,514.64 511.00,510.50 511.00,506.42 L 511.00 499.00 L 484.65 499.00 C460.40,499.00 458.18,498.85 456.65,497.17 C455.25,495.62 455.00,492.76 455.00,478.33 C455.00,463.11 455.19,461.13 456.83,459.65 C458.43,458.20 461.87,458.00 484.70,458.00 L 510.74 458.00 L 511.22 450.48 C511.48,446.35 512.00,442.67 512.36,442.30 C512.92,441.74 548.07,477.11 548.72,478.89 C548.85,479.23 540.72,488.03 530.66,498.45 C515.93,513.71 512.24,517.06 511.68,515.62 ZM 557.17 515.13 C556.42,514.65 555.98,513.04 556.17,511.43 C556.45,509.00 557.12,508.43 560.79,507.54 C563.15,506.97 565.50,505.83 566.02,505.00 C566.57,504.13 566.98,488.50 566.98,467.75 C567.00,433.32 566.93,431.93 565.00,430.00 C563.90,428.90 561.74,428.00 560.20,428.00 C556.65,428.00 555.00,426.35 555.00,422.80 L 555.00 420.00 L 574.56 420.00 L 594.12 420.00 L 593.81 423.74 C593.51,427.40 593.39,427.50 588.65,428.17 C585.99,428.55 583.60,429.06 583.36,429.31 C582.70,429.97 582.95,505.28 583.61,505.94 C583.92,506.25 588.99,506.47 594.87,506.44 C603.35,506.38 606.38,505.97 609.47,504.44 C614.74,501.82 617.47,497.90 617.17,493.39 C616.89,489.34 618.34,487.00 621.12,487.00 C623.43,487.00 623.44,486.69 621.29,480.70 L 619.57 475.90 L 609.87 476.20 L 600.17 476.50 L 599.09 480.12 C597.53,485.28 597.66,485.77 601.00,487.50 C603.11,488.59 604.00,489.79 604.00,491.53 C604.00,493.98 603.94,494.00 594.50,494.00 C583.30,494.00 583.47,494.30 588.14,483.06 C589.86,478.90 594.70,466.27 598.89,455.00 L 606.50 434.50 L 612.07 434.21 L 617.64 433.91 L 624.46 451.71 C628.21,461.49 631.96,471.08 632.79,473.00 C633.62,474.92 634.40,477.01 634.54,477.63 C635.27,480.98 636.25,483.00 637.13,483.00 C637.67,483.00 637.89,483.36 637.62,483.81 C637.34,484.25 638.22,485.44 639.56,486.45 C641.15,487.64 642.00,489.28 642.00,491.14 L 642.00 494.00 L 632.06 494.00 C623.07,494.00 619.38,494.88 621.89,496.43 C623.27,497.29 622.55,512.63 621.04,514.45 C619.93,515.79 615.57,516.00 589.13,515.98 C572.28,515.98 557.90,515.59 557.17,515.13 ZM 616.00 467.65 C616.00,465.86 610.08,453.53 609.06,453.19 C608.30,452.93 608.01,453.20 608.38,453.80 C608.74,454.38 608.59,455.13 608.06,455.46 C607.53,455.79 607.34,456.72 607.65,457.53 C607.96,458.35 607.65,459.00 606.94,459.00 C606.24,459.00 605.95,459.28 606.30,459.63 C606.65,459.98 606.27,461.20 605.46,462.35 C602.41,466.71 603.44,468.00 610.00,468.00 C613.30,468.00 616.00,467.84 616.00,467.65 ZM 648.75 515.32 C647.53,514.99 647.00,513.85 647.00,511.54 C647.00,508.35 647.18,508.20 651.75,507.52 C660.48,506.23 660.00,508.58 660.00,466.92 L 660.00 430.15 L 651.75 429.78 C645.99,429.52 642.80,429.83 641.17,430.78 C638.66,432.25 634.41,440.45 633.40,445.75 C632.87,448.52 632.35,449.00 629.89,449.00 C627.06,449.00 627.00,448.88 627.00,443.65 C627.00,440.71 627.29,434.19 627.65,429.15 L 628.30 420.00 L 669.00 420.00 L 709.70 420.00 L 710.37 429.75 C710.74,435.11 711.31,441.64 711.65,444.25 L 712.26 449.00 L 709.20 449.00 C706.89,449.00 705.97,448.45 705.46,446.75 C705.09,445.51 703.46,441.69 701.84,438.25 C698.11,430.33 696.15,429.33 685.19,429.80 L 676.87 430.16 L 677.07 467.29 C677.23,496.24 677.56,504.70 678.58,505.72 C679.29,506.44 681.95,507.31 684.49,507.65 C689.08,508.28 689.10,508.31 688.80,511.89 L 688.50 515.50 L 669.50 515.64 C659.05,515.72 649.71,515.58 648.75,515.32 Z" fill="rgb(254,254,254)"/>
</g>
</svg>